# xmcd CD database file
#
# Track frame offsets:
#	150
#	13472
#	36710
#	49987
#	65545
#	77667
#	107475
#	134675
#	152660
#	163742
#	178327
#	204307
#	216187
#	232330
#	246325
#	266675
#
# Disc length: 3736 seconds
#
# Revision: 0
# Processed by: cddbd v1.4PL0 Copyright (c) Steve Scherf et al.
# Submitted via: CDex 1.40Beta9
#
DISCID=fa0e9610
DTITLE=Cooper Terry - Tribute to the Blues
DYEAR=1992
DGENRE=Blues
TTITLE0=is l.a. burning
TTITLE1=tribute to willie dixon
TTITLE2=my daddy
TTITLE3=mafia blues
TTITLE4=don't mess with my cookie
TTITLE5=crossroads
TTITLE6=kinda like wolf
TTITLE7=hiv blues
TTITLE8=milano bound
TTITLE9=it's stinky
TTITLE10=goin to rio
TTITLE11=32-20
TTITLE12=i'm evil
TTITLE13=ain't no justice
TTITLE14=raggety and dirty
TTITLE15=african soup bone
EXTD=YEAR: 1992 ID3G: 0
EXTT0=
EXTT1=
EXTT2=
EXTT3=
EXTT4=
EXTT5=
EXTT6=
EXTT7=
EXTT8=
EXTT9=
EXTT10=
EXTT11=
EXTT12=
EXTT13=
EXTT14=
EXTT15=
PLAYORDER=
